# xmcd CD Database Entry
#
# Track frame offsets:
# 150
# 17845
# 30017
# 48005
# 73467
# 90095
# 101650
# 117297
# 137047
# 157402
# 171472
# 193895
# 211977
#
# Disc length: 3198 seconds
#
# Revision: 2
# Processed by: cddbd v1.5.2PL0 Copyright (c) Steve Scherf et al.
# Submitted via: RSJCDWriter_freedb_lib_OS/2 1.03
#
DISCID=b30c7c0d
DTITLE=Alex Schultz - Think About It
DYEAR=2004
DGENRE=blues
TTITLE0=Done Got Over It
TTITLE1=Be Good, Be Gone
TTITLE2=Let's Start Again
TTITLE3=Big Time
TTITLE4=I Don't Want Your Money, Honey
TTITLE5=Think
TTITLE6=Act Right
TTITLE7=Lexington Express
TTITLE8=I Love The Woman
TTITLE9=No Use Knocking
TTITLE10=Who Will The Next Fool Be
TTITLE11=Rhumba And Orange
TTITLE12=Walkin' And Talkin'
EXTD=YEAR: 2004\nSEVERN RECORDS\n
EXTT0=
EXTT1=
EXTT2=
EXTT3=
EXTT4=
EXTT5=
EXTT6=
EXTT7=
EXTT8=
EXTT9=
EXTT10=
EXTT11=
EXTT12=
PLAYORDER=
